<svg style="display: none;" xmlns="http://www.w3.org/2000/svg"><symbol id="menu-close" viewBox="0 0 47.97 47.97"><path d="M28.228 23.986L47.092 5.122a2.998 2.998 0 0 0 0-4.242 2.998 2.998 0 0 0-4.242 0L23.986 19.744 5.121.88a2.998 2.998 0 0 0-4.242 0 2.998 2.998 0 0 0 0 4.242l18.865 18.864L.879 42.85a2.998 2.998 0 1 0 4.242 4.241l18.865-18.864L42.85 47.091c.586.586 1.354.879 2.121.879s1.535-.293 2.121-.879a2.998 2.998 0 0 0 0-4.242L28.228 23.986z"/></symbol><symbol id="menu-open" viewBox="0 0 73.17 73.17"><path d="M4.242 14.425h64.684c2.344 0 4.242-1.933 4.242-4.324 0-2.385-1.898-4.325-4.242-4.325H4.242C1.898 5.776 0 7.716 0 10.101c0 2.392 1.898 4.324 4.242 4.324zm64.684 17.834H4.242C1.898 32.259 0 34.2 0 36.584c0 2.393 1.898 4.325 4.242 4.325h64.684c2.344 0 4.242-1.933 4.242-4.325 0-2.384-1.898-4.325-4.242-4.325zm0 26.483H4.242C1.898 58.742 0 60.683 0 63.067c0 2.393 1.898 4.325 4.242 4.325h64.684c2.344 0 4.242-1.935 4.242-4.325 0-2.384-1.898-4.325-4.242-4.325z"/></symbol></svg>